<svg xmlns="http://www.w3.org/2000/svg" width="27.319" height="18.867" viewBox="0 0 27.319 18.867"><defs><style>.a{fill:#fff;}</style></defs><path class="a" d="M102.832,176.063H90.258a2.035,2.035,0,1,0,0,4.07h12.574a2.035,2.035,0,0,0,0-4.07Zm0,3.344H90.258a1.309,1.309,0,1,1,0-2.618h12.574a1.309,1.309,0,0,1,0,2.618Zm0,0" transform="translate(-82.885 -165.428)"/><path class="a" d="M137.23,198.172h.669a.363.363,0,0,1,.363.363v.669a.363.363,0,0,1-.363.363h-.669a.363.363,0,0,1-.363-.363v-.669A.363.363,0,0,1,137.23,198.172Zm0,0" transform="translate(-128.587 -186.2)"/><path class="a" d="M292,198.172h.669a.363.363,0,0,1,.363.363v.669a.363.363,0,0,1-.363.363H292a.363.363,0,0,1-.363-.363v-.669A.363.363,0,0,1,292,198.172Zm0,0" transform="translate(-273.997 -186.2)"/><path class="a" d="M24.421,9.371h-.233V3.643a1.7,1.7,0,1,0-.726,0V9.371h-.126a6.56,6.56,0,0,0-6.26-4.624H10.242A6.559,6.559,0,0,0,3.982,9.371H2.9a2.911,2.911,0,0,0,0,5.822H4.229a6.557,6.557,0,0,0,6.012,3.955h6.835a6.557,6.557,0,0,0,6.012-3.955h1.332a2.911,2.911,0,0,0,0-5.822Zm-1.57-7.389a.975.975,0,1,1,.975.975.975.975,0,0,1-.975-.975ZM2.9,14.467a2.185,2.185,0,0,1,0-4.37H3.8a6.547,6.547,0,0,0-.11,1.2V12.6a6.534,6.534,0,0,0,.272,1.867Zm14.179,3.955H10.242A5.829,5.829,0,0,1,4.419,12.6V11.294a5.829,5.829,0,0,1,5.822-5.822h6.835A5.829,5.829,0,0,1,22.9,11.294V12.6A5.829,5.829,0,0,1,17.077,18.422Zm7.344-3.955H23.354a6.535,6.535,0,0,0,.272-1.867V11.294a6.551,6.551,0,0,0-.11-1.2h.906a2.185,2.185,0,0,1,0,4.37Zm0,0" transform="translate(0 -0.281)"/></svg>